Coordinates
version=1
nRows=19
nColumns=24
inDegrees=yes

Units are S.I. units (second, meters, Newtons, ...)
Angles are in degrees.

endheader
time	pelvis_tilt	pelvis_list	pelvis_rotation	pelvis_tx	pelvis_ty	pelvis_tz	hip_flexion_r	hip_adduction_r	hip_rotation_r	knee_angle_r	ankle_angle_r	subtalar_angle_r	mtp_angle_r	hip_flexion_l	hip_adduction_l	hip_rotation_l	knee_angle_l	ankle_angle_l	subtalar_angle_l	mtp_angle_l	lumbar_extension	lumbar_bending	lumbar_rotation
      1.20400000	     -4.45693782	      0.02118872	     -8.57317637	     -0.02582695	      0.86264482	      0.30098067	    -16.19012865	      2.27028723	      2.28167819	    -11.07593856	     22.72603207	     15.32314091	     12.03715599	     35.77354733	     -4.19819284	    -12.12645244	     -6.15974772	      7.53557515	     -2.04091267	     -0.63575585	     -2.27267057	      0.47104531	     15.53618479
      1.20816667	     -4.50366482	      0.09573789	     -8.69768900	     -0.01991741	      0.86151328	      0.30089682	    -16.27131503	      2.08613421	      2.26790696	    -11.61046375	     22.68306353	     15.47390094	     12.65949959	     35.97707296	     -4.19594423	    -12.16355515	     -6.97645231	      7.55229655	     -1.96971389	     -0.58221582	     -2.17263682	      0.30062494	     15.71293443
      1.21233333	     -4.47725715	      0.21681314	     -8.79562720	     -0.01385224	      0.86055877	      0.30077106	    -16.47525317	      1.84798453	      2.27638577	    -12.03793677	     22.39903279	     15.43508488	     16.80718673	     36.01525826	     -4.09242611	    -12.05562098	     -7.64754827	      7.46269350	     -2.20725584	     -0.08235145	     -2.15090421	      0.03566457	     15.74602199
      1.21650000	     -4.46311840	      0.31372024	     -8.87593873	     -0.00777782	      0.85960792	      0.30062568	    -16.65513499	      1.64752539	      2.30439320	    -12.50750982	     22.19431854	     15.37866179	     16.82246904	     36.08648433	     -4.01260605	    -11.98701229	     -8.39505660	      7.36018970	     -2.32808710	     -0.07837696	     -2.12938269	     -0.17609223	     15.74926559
      1.22066667	     -4.48145831	      0.42695739	     -8.95574370	     -0.00164681	      0.85865070	      0.30045933	    -16.77831372	      1.43200522	      2.32562692	    -13.01836632	     21.95172296	     15.33920161	     16.86244009	     36.17592623	     -3.91604390	    -11.92807877	     -9.13821502	      7.20062323	     -2.47015677	     -0.06839273	     -2.04925028	     -0.40824145	     15.76479724
      1.22483333	     -4.55198288	      0.55687129	     -9.03989976	      0.00452257	      0.85767021	      0.30029064	    -16.81505903	      1.20498978	      2.35035004	    -13.58350685	     21.69221817	     15.33167484	     16.98475273	     36.29511412	     -3.80325001	    -11.83717686	     -9.84822221	      6.94874477	     -2.67615074	     -0.03614052	     -1.90490411	     -0.66722316	     15.79947864
      1.22900000	     -4.61005679	      0.68827959	     -9.09915111	      0.01071611	      0.85673486	      0.30003862	    -16.84528279	      0.97497703	      2.32153533	    -14.19141069	     21.45807348	     15.34957526	     17.39196868	     36.38863826	     -3.65579602	    -11.67394870	    -10.53581665	      6.57718114	     -3.10294542	      0.07524530	     -1.77598001	     -0.90082525	     15.84174202
      1.23316667	     -4.64433266	      0.85204694	     -9.15354252	      0.01703864	      0.85591191	      0.29981318	    -16.91717813	      0.71286971	      2.32109129	    -14.75498238	     21.03057855	     15.27423491	     17.57421190	     36.43491750	     -3.48030713	    -11.62417061	    -11.20815176	      6.23449969	     -3.29814353	      0.12288769	     -1.65667151	     -1.21567640	     15.81367392
      1.23733333	     -4.71685098	      1.01455897	     -9.19815226	      0.02336072	      0.85507551	      0.29953806	    -16.91135363	      0.45853172	      2.30322768	    -15.39060824	     20.61652415	     15.19978482	     17.81302300	     36.51925585	     -3.29456780	    -11.53017477	    -11.87203130	      5.79202468	     -3.64297596	      0.18280090	     -1.48648576	     -1.50301012	     15.78581709
      1.24150000	     -4.80185088	      1.17208515	     -9.20756591	      0.02966540	      0.85424061	      0.29914560	    -16.85444238	      0.21413601	      2.21980012	    -16.10602965	     20.28080337	     15.16667446	     18.56304216	     36.60467963	     -3.06288467	    -11.26014689	    -12.49274924	      5.22138666	     -4.39894571	      0.37634231	     -1.32502286	     -1.75134789	     15.75160628
      1.24566667	     -4.79482435	      1.40258866	     -9.23588403	      0.03615201	      0.85364868	      0.29880874	    -16.91518321	     -0.13414078	      2.11562914	    -16.73857788	     19.63382745	     15.08716488	     24.06019017	     36.56481225	     -2.78160639	    -11.24573482	    -13.08418632	      4.68341829	     -4.79794923	      1.84039083	     -1.24173122	     -2.15106008	     15.68459044
      1.24983333	     -4.92778165	      1.56032728	     -9.22088004	      0.04256576	      0.85286703	      0.29844265	    -16.79522007	     -0.35255921	      2.07381441	    -17.46518406	     19.03896508	     14.93715712	     24.10423795	     36.73349809	     -2.58135550	    -11.18184905	    -13.79710722	      4.17210213	     -5.04120826	      1.84782764	     -0.98349516	     -2.42502834	     15.63790886
      1.25400000	     -5.06704289	      1.74608779	     -9.20956335	      0.04895186	      0.85212789	      0.29801086	    -16.61891373	     -0.60747532	      2.01498744	    -18.27441135	     18.53169891	     14.80861518	     24.30259497	     36.88585920	     -2.32301663	    -10.97860505	    -14.44591273	      3.54818099	     -5.71189703	      1.88648987	     -0.75299106	     -2.71158811	     15.55353844
      1.25816667	     -5.17996427	      1.95914100	     -9.18021905	      0.05541329	      0.85149197	      0.29754298	    -16.45767520	     -0.89675151	      1.90503518	    -19.09766487	     17.92533437	     14.70790630	     24.59664407	     37.00422648	     -2.02860909	    -10.83612843	    -15.08374712	      2.92514885	     -6.29357073	      1.94073159	     -0.53072798	     -3.04935561	     15.45690988
      1.26233333	     -5.30192639	      2.17646547	     -9.13836681	      0.06189042	      0.85089726	      0.29705094	    -16.26165914	     -1.18620594	      1.78122306	    -19.96066211	     17.26154073	     14.60142091	     24.98371177	     37.14095489	     -1.72606572	    -10.69606161	    -15.74424623	      2.33051810	     -6.85727501	      2.00719260	     -0.29997309	     -3.39288146	     15.35236545
      1.26650000	     -5.38519842	      2.41996226	     -9.07104330	      0.06843189	      0.85040505	      0.29650170	    -16.09122560	     -1.51648783	      1.56656594	    -20.83224296	     16.45574423	     14.52465960	     29.83791216	     37.24103043	     -1.38095505	    -10.58741668	    -16.41716282	      1.81429718	     -7.35287225	      2.86319473	     -0.11500987	     -3.79349634	     15.25194598
      1.27066667	     -5.52852318	      2.62419639	     -9.00426029	      0.07491506	      0.84989271	      0.29597456	    -15.83217183	     -1.77713032	      1.46401273	    -21.75486238	     15.67134218	     14.32140148	     29.91213330	     37.43122321	     -1.09287078	    -10.47562901	    -17.15439710	      1.28868133	     -7.82993387	      2.86563106	      0.13672537	     -4.10567221	     15.13714391
      1.27483333	     -5.65498262	      2.85716901	     -8.91554787	      0.08142339	      0.84944659	      0.29538225	    -15.55595647	     -2.07776383	      1.27977749	    -22.73525461	     14.87676702	     14.20044311	     30.06411338	     37.60233984	     -0.75536209	    -10.33827563	    -17.88751977	      0.81282924	     -8.33210901	      2.87225420	      0.36760074	     -4.46956233	     15.00672684
      1.27900000	     -5.77652514	      3.09764449	     -8.81040563	      0.08794264	      0.84906039	      0.29474562	    -15.25950616	     -2.38867346	      1.06598263	    -23.75252448	     14.03951490	     14.08598699	     30.29993628	     37.77550422	     -0.39980195	    -10.19074199	    -18.64249484	      0.39705913	     -8.82450139	      2.87965445	      0.58887359	     -4.84068961	     14.86815107
